<?xml version="1.0" standalone="no"?>
<!DOCTYPE svg PUBLIC "-//W3C//DTD SVG 20010904//EN"
 "http://www.w3.org/TR/2001/REC-SVG-20010904/DTD/svg10.dtd">
<svg version="1.0" xmlns="http://www.w3.org/2000/svg"
 width="501.000000pt" height="720.000000pt" viewBox="0 0 501.000000 720.000000"
 preserveAspectRatio="xMidYMid meet">

<g transform="translate(0.000000,720.000000) scale(0.100000,-0.100000)"
fill="#000000" stroke="none">
<path d="M4650 6963 c-41 -38 -148 -138 -238 -223 -90 -85 -171 -158 -180
-161 -10 -3 -30 -2 -46 2 -16 5 -32 6 -37 3 -4 -2 -13 4 -19 15 -6 12 -16 18
-25 15 -8 -4 -15 -2 -15 3 0 18 -116 20 -175 3 -22 -6 -48 -13 -57 -14 -10 -1
-21 -6 -25 -11 -5 -4 -2 -5 6 0 10 6 12 4 7 -4 -6 -9 -11 -9 -24 1 -13 11 -15
10 -9 -4 4 -11 2 -15 -6 -12 -7 2 -32 -14 -57 -36 -25 -22 -63 -50 -85 -61
l-40 -21 34 6 c29 5 32 4 21 -9 -7 -8 -9 -15 -4 -15 5 0 4 -4 -2 -8 -5 -4 -28
-42 -50 -84 -21 -43 -43 -78 -47 -78 -5 0 -5 6 -1 13 6 9 4 9 -8 -1 -13 -10
-17 -8 -27 17 -14 33 -6 95 15 112 19 15 18 30 -1 23 -21 -8 -19 14 5 56 l21
35 -22 -25 c-39 -45 -72 -129 -73 -189 l-1 -56 33 -1 c18 -1 35 2 37 6 3 5 20
5 37 1 18 -4 164 -6 323 -5 160 1 338 3 397 3 l108 1 -6 33 c-3 17 -8 39 -11
47 -6 16 -8 25 -12 50 -2 12 -4 12 -9 -2 -6 -16 -10 -15 -40 8 -18 14 -30 30
-27 35 4 5 2 9 -4 9 -6 0 -22 17 -36 37 -21 32 -22 39 -10 46 8 4 15 16 15 25
0 10 79 96 176 192 160 159 282 290 272 290 -2 0 -37 -30 -78 -67z"/>
<path d="M4318 6245 c-2 -1 -311 -5 -687 -9 -377 -4 -687 -9 -690 -12 -3 -2
122 -4 278 -4 156 1 286 -1 289 -4 3 -3 -2 -6 -11 -6 -21 0 -21 -8 -4 -29 26
-30 81 -136 64 -122 -9 7 -17 10 -17 5 0 -4 -9 2 -20 14 -37 39 -86 27 -96
-25 -5 -27 -2 -41 17 -66 19 -26 19 -29 3 -17 -10 8 -22 20 -26 25 -5 6 -8 5
-8 -2 0 -7 -5 -13 -11 -13 -5 0 -7 6 -3 13 6 10 4 10 -7 0 -20 -19 -33 -16
-18 5 13 16 13 16 -7 -1 -11 -9 -24 -14 -27 -11 -4 4 -14 1 -24 -7 -9 -8 -14
-9 -10 -2 11 17 -9 25 -23 8 -12 -14 -44 -10 -35 5 3 5 1 11 -4 14 -5 4 -12 2
-16 -4 -4 -6 -11 -7 -17 -4 -7 4 -8 2 -4 -5 4 -6 13 -8 19 -4 8 5 8 2 0 -9 -7
-8 -9 -18 -5 -22 4 -4 2 -7 -3 -6 -6 1 -12 1 -15 0 -20 -7 -39 -7 -34 2 4 6
-1 6 -13 -1 -11 -6 -24 -7 -28 -3 -5 4 -5 1 -1 -6 4 -7 11 -10 16 -7 5 3 11 1
14 -3 3 -5 -5 -9 -17 -10 -28 0 -67 -12 -67 -21 0 -3 -9 -12 -20 -19 -20 -12
-20 -12 -6 16 26 49 91 130 131 162 53 42 55 45 19 27 -73 -37 -199 -192 -236
-290 -11 -28 -24 -58 -30 -64 -16 -20 -2 -16 62 18 56 29 96 62 57 46 -10 -4
-24 -10 -33 -14 -27 -10 -7 35 32 74 37 37 76 55 99 47 12 -5 12 -9 -1 -32
-15 -25 -15 -25 0 -8 19 24 21 9 2 -16 -7 -10 -17 -14 -21 -10 -5 4 -6 -1 -2
-10 3 -10 0 -19 -10 -22 -13 -5 -9 -12 17 -31 19 -14 45 -25 58 -25 22 0 23
-2 11 -17 -15 -18 -14 -17 39 4 6 3 12 0 12 -6 0 -6 -6 -11 -12 -11 -9 0 -9
-3 1 -9 9 -6 -10 -10 -55 -11 -99 -2 -94 -1 -83 -22 9 -17 4 -18 -61 -18 -80
0 -113 17 -89 46 9 11 5 11 -19 -3 l-31 -18 36 -17 c23 -11 62 -18 102 -19 64
-1 65 -1 26 -11 -41 -9 -276 -5 -354 7 -30 5 -42 4 -37 -3 4 -7 19 -9 36 -5
18 3 30 1 30 -5 0 -13 -55 -21 -75 -9 -10 5 -27 5 -43 -1 -40 -16 -985 -10
-1003 5 -8 6 -50 14 -94 17 -44 3 -69 2 -56 -2 42 -13 37 -32 -7 -26 -22 2
-51 0 -66 -6 -14 -5 -26 -6 -26 -1 0 5 -16 5 -35 1 -19 -4 -37 -4 -40 1 -3 4
-12 6 -20 2 -23 -8 -65 6 -65 21 0 9 7 12 19 9 10 -3 21 0 25 5 4 6 -60 12
-172 16 -97 4 -205 8 -240 9 -40 2 -61 -1 -58 -8 2 -5 8 -9 14 -8 6 2 23 -2
37 -7 14 -5 25 -6 25 -1 0 5 12 6 27 2 16 -4 43 -4 60 0 18 4 48 3 67 -1 19
-4 39 -3 44 2 10 10 62 -10 62 -24 0 -11 -43 -28 -50 -19 -3 3 -57 6 -122 6
-74 0 -114 4 -111 10 3 6 0 5 -7 -2 -10 -9 -3 -24 32 -75 25 -34 141 -200 259
-367 118 -166 241 -342 273 -390 32 -47 95 -137 140 -199 45 -63 99 -140 121
-171 53 -76 142 -157 191 -174 36 -13 139 -32 139 -26 0 1 11 -4 25 -12 25
-14 30 -15 60 -18 13 -1 13 -3 0 -11 -10 -6 -6 -9 16 -8 17 1 36 -2 42 -6 6
-3 13 -2 17 4 4 6 11 8 16 4 5 -3 7 -10 3 -15 -3 -5 -9 -7 -14 -4 -5 3 -11 1
-15 -5 -4 -6 6 -10 24 -10 23 0 29 4 25 15 -4 8 -2 15 4 15 6 0 12 -5 14 -10
11 -34 509 -31 562 4 22 14 27 14 39 1 12 -12 16 -12 20 -1 3 7 25 16 50 19
76 11 141 38 182 77 22 20 65 50 95 66 55 29 116 87 135 128 21 44 150 232
177 256 15 14 45 61 67 105 21 44 158 259 302 477 145 219 280 423 301 455 20
32 52 81 70 108 30 44 52 77 130 193 9 14 15 29 12 34 -3 4 10 27 28 51 50 64
60 84 45 94 -7 5 3 10 28 14 28 5 16 7 -42 6 -45 0 -84 -1 -85 -2z m-735 -42
c-7 -2 -19 -2 -25 0 -7 3 -2 5 12 5 14 0 19 -2 13 -5z m745 -148 c-6 -14 -15
-25 -20 -25 -5 0 -1 11 8 25 9 14 18 25 20 25 2 0 -2 -11 -8 -25z m-49 -54
c-8 -11 -49 -63 -92 -115 -43 -53 -80 -104 -81 -113 -2 -10 -7 -18 -12 -18
-16 0 -34 -16 -34 -30 0 -9 6 -12 17 -8 10 4 14 2 10 -4 -4 -6 -31 -14 -60
-18 -28 -3 -60 -9 -71 -12 -13 -4 -16 -1 -11 8 6 11 5 12 -6 2 -20 -19 -37
-16 -49 10 -10 20 -10 20 3 5 8 -10 17 -18 21 -18 10 0 -75 123 -95 138 -15
10 -16 17 -8 36 15 31 45 44 91 38 63 -7 315 58 325 85 4 10 8 11 13 4 4 -8
13 -5 25 9 23 25 32 26 14 1z m-659 -36 c7 -9 8 -15 2 -15 -5 0 -12 7 -16 15
-3 8 -4 15 -2 15 2 0 9 -7 16 -15z m-335 -245 c-3 -5 -10 -10 -16 -10 -5 0 -9
5 -9 10 0 6 7 10 16 10 8 0 12 -4 9 -10z m78 -17 c-7 -2 -21 -2 -30 0 -10 3
-4 5 12 5 17 0 24 -2 18 -5z m100 0 c-7 -2 -21 -2 -30 0 -10 3 -4 5 12 5 17 0
24 -2 18 -5z m496 -47 c-3 -3 -68 -7 -145 -10 -76 -2 -110 -1 -74 3 92 9 225
13 219 7z m-601 -13 c-32 -2 -86 -2 -120 0 -35 2 -9 3 57 3 66 0 94 -1 63 -3z
m255 0 c-29 -2 -78 -2 -110 0 -32 2 -8 3 52 3 61 0 87 -1 58 -3z m-2713 -53
c0 -5 -7 -10 -15 -10 -8 0 -15 5 -15 10 0 6 7 10 15 10 8 0 15 -4 15 -10z
m113 -7 c-7 -2 -19 -2 -25 0 -7 3 -2 5 12 5 14 0 19 -2 13 -5z m654 -49 c-3
-3 -12 -4 -19 -1 -8 3 -5 6 6 6 11 1 17 -2 13 -5z m843 -4 c0 -5 -4 -10 -10
-10 -5 0 -10 5 -10 10 0 6 5 10 10 10 6 0 10 -4 10 -10z m-473 -6 c-3 -3 -12
-4 -19 -1 -8 3 -5 6 6 6 11 1 17 -2 13 -5z m-182 -54 c3 -5 -1 -10 -10 -10 -9
0 -13 5 -10 10 3 6 8 10 10 10 2 0 7 -4 10 -10z m-95 -60 c0 -5 -5 -10 -11
-10 -5 0 -7 5 -4 10 3 6 8 10 11 10 2 0 4 -4 4 -10z m537 -126 c-3 -3 -12 -4
-19 -1 -8 3 -5 6 6 6 11 1 17 -2 13 -5z m-417 -48 c0 -2 -7 -7 -16 -10 -8 -3
-12 -2 -9 4 6 10 25 14 25 6z m-193 -82 c-3 -3 -12 -4 -19 -1 -8 3 -5 6 6 6
11 1 17 -2 13 -5z m88 -24 c-3 -5 -11 -10 -16 -10 -6 0 -7 5 -4 10 3 6 11 10
16 10 6 0 7 -4 4 -10z m138 3 c-23 -9 -14 -23 15 -23 15 0 33 -5 40 -12 6 -6
27 -13 44 -14 18 -1 56 -5 83 -10 67 -11 155 -8 168 5 23 23 29 10 7 -14 -29
-31 -20 -44 15 -21 14 9 25 13 25 9 -1 -12 -30 -49 -34 -43 -2 3 -34 -15 -72
-40 -38 -25 -91 -57 -119 -71 -54 -29 -59 -28 -158 23 -21 11 -41 17 -44 14
-3 -3 -19 4 -34 15 -16 11 -39 21 -51 23 -39 4 -78 25 -78 41 0 8 -5 15 -11
15 -5 0 -7 -6 -3 -12 4 -7 3 -9 -1 -5 -5 4 -10 14 -11 23 -2 12 4 11 31 -6 18
-11 41 -20 51 -20 11 0 41 -11 68 -25 49 -25 86 -32 86 -17 0 8 -121 72 -135
72 -3 0 -3 -6 1 -12 5 -10 4 -10 -6 -1 -11 10 -10 16 5 33 10 11 24 20 32 20
8 0 12 3 9 8 -5 9 58 7 73 -2 5 -4 12 -2 16 4 3 5 -1 10 -9 10 -8 0 -18 5 -21
10 -8 13 3 30 18 29 9 0 9 -2 0 -6z m153 -2 c-4 -5 0 -12 6 -14 8 -3 6 -6 -4
-6 -10 -1 -18 6 -18 14 0 8 5 15 11 15 5 0 8 -4 5 -9z m-456 -22 c0 -4 7 -6
15 -3 9 4 15 0 15 -10 0 -19 -1 -19 -31 -3 -26 14 -38 40 -14 31 8 -4 15 -10
15 -15z m720 1 c0 -5 -2 -10 -4 -10 -3 0 -8 5 -11 10 -3 6 -1 10 4 10 6 0 11
-4 11 -10z m-520 -4 c0 -9 -30 -14 -35 -6 -4 6 3 10 14 10 12 0 21 -2 21 -4z
m445 -14 c-3 -3 -11 0 -18 7 -9 10 -8 11 6 5 10 -3 15 -9 12 -12z m-555 -13
c0 -4 -7 -6 -15 -3 -8 4 -15 10 -15 15 0 4 7 6 15 3 8 -4 15 -10 15 -15z m70
-3 c0 -3 -4 -8 -10 -11 -5 -3 -10 -1 -10 4 0 6 5 11 10 11 6 0 10 -2 10 -4z
m635 -6 c-3 -5 -11 -10 -16 -10 -6 0 -7 5 -4 10 3 6 11 10 16 10 6 0 7 -4 4
-10z m-735 -14 c-7 -7 -14 -6 -21 1 -9 9 -7 12 9 10 14 -1 18 -5 12 -11z m670
-420 c0 -2 -6 -9 -14 -15 -11 -9 -16 -9 -22 0 -4 7 -3 9 4 5 6 -3 13 -2 17 4
6 10 15 14 15 6z m-505 -56 c-3 -5 0 -10 7 -12 7 -3 2 -7 -10 -10 -18 -5 -20
-3 -13 10 7 12 5 23 -7 37 -17 20 -17 20 5 1 13 -10 20 -22 18 -26z m185 6 c0
-3 -4 -8 -10 -11 -5 -3 -10 -1 -10 4 0 6 5 11 10 11 6 0 10 -2 10 -4z m-108
-78 c-7 -7 -12 -8 -12 -2 0 14 12 26 19 19 2 -3 -1 -11 -7 -17z m-22 3 c0 -5
-7 -12 -16 -15 -24 -9 -28 -7 -14 9 14 17 30 20 30 6z m170 -13 c0 7 5 12 10
12 24 0 7 -19 -31 -34 -26 -11 -46 -13 -56 -7 -13 7 -10 10 15 16 20 4 32 13
32 23 1 15 3 14 15 -2 8 -11 15 -14 15 -8z m-360 -32 c0 -3 -4 -8 -10 -11 -5
-3 -10 -1 -10 4 0 6 5 11 10 11 6 0 10 -2 10 -4z m350 -6 c-8 -5 -19 -10 -25
-10 -5 0 -3 5 5 10 8 5 20 10 25 10 6 0 3 -5 -5 -10z m-103 -16 c-3 -3 -12 -4
-19 -1 -8 3 -5 6 6 6 11 1 17 -2 13 -5z m-267 -14 c0 -5 -5 -10 -11 -10 -5 0
-7 5 -4 10 3 6 8 10 11 10 2 0 4 -4 4 -10z m208 -17 c-10 -2 -28 -2 -40 0 -13
2 -5 4 17 4 22 1 32 -1 23 -4z"/>
<path d="M1950 5083 c0 -6 8 -17 18 -24 16 -13 16 -13 2 6 -8 11 -16 22 -17
24 -2 2 -3 0 -3 -6z"/>
<path d="M2041 5039 c8 -5 43 -8 79 -8 79 1 69 6 -24 12 -42 3 -63 1 -55 -4z"/>
<path d="M2205 5020 c3 -5 8 -10 11 -10 2 0 4 5 4 10 0 6 -5 10 -11 10 -5 0
-7 -4 -4 -10z"/>
<path d="M2473 6223 c75 -2 199 -2 275 0 75 1 13 3 -138 3 -151 0 -213 -2
-137 -3z"/>
<path d="M428 6203 c6 -2 18 -2 25 0 6 3 1 5 -13 5 -14 0 -19 -2 -12 -5z"/>
<path d="M3259 6007 c6 -8 7 -18 3 -22 -4 -5 -1 -5 6 -1 10 6 10 11 1 22 -6 8
-14 14 -16 14 -3 0 0 -6 6 -13z"/>
<path d="M3185 5969 c-4 -6 -5 -12 -2 -15 2 -3 7 2 10 11 7 17 1 20 -8 4z"/>
<path d="M3030 5818 c0 -4 6 -8 14 -8 8 0 17 4 20 8 2 4 -4 8 -15 8 -10 0 -19
-4 -19 -8z"/>
<path d="M3070 5787 c0 -2 14 -13 30 -25 17 -13 30 -18 30 -13 0 6 -13 17 -30
26 -16 9 -30 14 -30 12z"/>
<path d="M3060 5720 l-45 -7 57 0 c32 0 55 4 52 9 -3 4 -8 7 -12 6 -4 0 -27
-4 -52 -8z"/>
<path d="M1266 5644 c-4 -10 -2 -13 7 -7 6 4 24 8 40 9 44 2 44 14 0 14 -28 0
-43 -5 -47 -16z"/>
<path d="M1790 5642 c0 -5 7 -9 15 -9 8 0 15 4 15 9 0 4 -7 8 -15 8 -8 0 -15
-4 -15 -8z"/>
<path d="M3174 4285 c-15 -20 -25 -37 -23 -39 2 -3 17 13 32 35 35 49 28 52
-9 4z"/>
<path d="M1820 4177 c18 -23 66 -93 108 -156 88 -131 121 -158 213 -171 66
-10 266 -14 258 -5 -3 2 -52 6 -110 8 -79 3 -116 9 -151 25 -53 23 -62 42 -21
42 25 0 25 1 10 18 -10 10 -15 21 -12 23 2 3 -12 3 -33 1 -33 -4 -35 -3 -24
11 8 9 11 21 8 26 -4 5 -2 13 4 16 6 4 8 15 5 26 -5 15 -1 19 20 19 48 0 16
18 -45 25 -33 4 -58 10 -55 14 2 5 -19 19 -47 32 -29 13 -76 38 -106 56 l-53
32 31 -42z"/>
<path d="M3042 4154 c-20 -9 -30 -19 -26 -26 5 -7 2 -9 -8 -6 -8 3 -41 -3 -74
-14 -86 -29 -165 -45 -247 -47 -40 -1 -123 -6 -186 -11 -63 -5 -118 -7 -122
-4 -5 3 -21 -2 -36 -10 -26 -14 -26 -15 -6 -16 12 0 25 -4 28 -10 4 -6 -13
-10 -44 -10 -27 0 -52 -4 -55 -9 -11 -16 47 -28 89 -19 22 5 63 7 90 4 41 -4
46 -3 28 6 -48 24 -13 41 76 38 88 -3 116 -1 119 10 6 16 88 12 102 -4 6 -8
19 -13 28 -10 9 3 -3 -5 -27 -18 -24 -13 -47 -33 -52 -44 -10 -28 15 -64 44
-64 20 1 20 2 5 11 -10 5 -18 18 -18 28 0 25 38 57 62 53 13 -2 18 0 14 7 -11
18 10 13 25 -6 8 -9 9 -14 3 -10 -7 4 -10 -6 -10 -28 1 -19 6 -35 11 -35 22
-1 -31 -30 -54 -30 -17 0 -22 -3 -15 -10 6 -6 28 -8 52 -4 32 5 39 10 34 23
-5 14 -3 14 10 3 14 -11 20 -9 43 15 48 50 145 203 145 228 0 4 -10 4 -22 0
-19 -5 -18 -3 5 10 15 9 27 18 27 20 0 6 3 7 -38 -11z m-74 -69 c-3 -3 -15 -7
-26 -10 -11 -2 -31 -9 -44 -17 l-23 -13 22 -3 c25 -4 47 -27 39 -40 -9 -16
-55 -1 -62 20 -4 15 -12 18 -30 14 -31 -8 -30 -2 3 20 35 22 140 47 121 29z
m-12 -30 c-11 -8 -22 -12 -25 -9 -6 6 19 24 34 24 6 -1 1 -7 -9 -15z m-8 -87
c-15 -23 -31 -35 -45 -35 -26 -1 -29 12 -9 33 20 19 25 18 19 -6 -9 -32 4 -23
29 21 12 22 24 36 26 31 1 -5 -8 -25 -20 -44z m-63 -48 c3 -5 -1 -10 -9 -10
-9 0 -16 5 -16 10 0 6 4 10 9 10 6 0 13 -4 16 -10z"/>
<path d="M2048 4153 c7 -3 16 -2 19 1 4 3 -2 6 -13 5 -11 0 -14 -3 -6 -6z"/>
<path d="M2168 4063 c6 -2 18 -2 25 0 6 3 1 5 -13 5 -14 0 -19 -2 -12 -5z"/>
<path d="M2137 4038 c2 -5 16 -8 31 -8 25 0 25 -1 6 -15 -19 -14 -19 -14 2
-15 12 0 25 9 31 23 10 21 8 22 -32 22 -24 0 -41 -3 -38 -7z"/>
<path d="M2225 4020 c-3 -5 1 -10 10 -10 9 0 13 5 10 10 -3 6 -8 10 -10 10 -2
0 -7 -4 -10 -10z"/>
<path d="M2085 3990 c-3 -5 1 -10 10 -10 9 0 13 5 10 10 -3 6 -8 10 -10 10 -2
0 -7 -4 -10 -10z"/>
<path d="M2200 3933 c0 -13 5 -23 10 -23 13 0 13 11 0 30 -8 12 -10 11 -10 -7z"/>
<path d="M2190 3891 c0 -17 18 -21 24 -6 3 9 0 15 -9 15 -8 0 -15 -4 -15 -9z"/>
<path d="M2583 3873 c9 -2 23 -2 30 0 6 3 -1 5 -18 5 -16 0 -22 -2 -12 -5z"/>
<path d="M2706 3865 c-19 -14 -18 -15 10 -15 21 0 25 3 15 9 -11 7 -10 10 5
14 12 3 13 5 4 6 -8 0 -24 -6 -34 -14z"/>
<path d="M2538 3863 c7 -3 16 -2 19 1 4 3 -2 6 -13 5 -11 0 -14 -3 -6 -6z"/>
<path d="M2690 3812 c0 -4 16 -6 35 -4 19 2 35 6 35 8 0 2 -16 4 -35 4 -19 0
-35 -4 -35 -8z"/>
<path d="M2160 3787 c1 -7 7 -23 15 -37 12 -21 14 -22 15 -6 0 13 5 17 20 13
29 -7 25 -2 -15 22 -23 13 -35 16 -35 8z"/>
<path d="M2825 3789 c-4 -6 -5 -12 -2 -15 2 -3 7 2 10 11 7 17 1 20 -8 4z"/>
<path d="M2785 3781 c-3 -5 -1 -12 5 -16 5 -3 10 1 10 9 0 18 -6 21 -15 7z"/>
<path d="M2629 3702 c-7 -2 -30 -12 -51 -22 -20 -10 -38 -16 -41 -13 -3 2 -4
-3 -2 -14 1 -10 8 -17 14 -15 6 1 11 -3 11 -10 0 -6 3 -9 6 -5 3 3 20 -7 36
-22 l29 -27 -10 -155 c-32 -459 -37 -1392 -11 -1849 14 -235 40 -492 52 -507
7 -9 6 -18 -3 -30 -12 -14 -12 -16 0 -8 11 6 13 3 7 -19 -4 -16 -2 -26 4 -26
6 0 9 -4 6 -9 -9 -14 4 -41 20 -41 8 0 14 5 14 10 0 6 -3 9 -7 9 -24 -4 -23 4
2 26 18 17 25 33 22 45 -3 11 -1 18 4 14 5 -3 9 -1 9 5 0 5 -4 13 -10 16 -5 3
-10 11 -10 17 0 7 6 6 15 -2 19 -16 19 -8 0 104 -69 394 -88 657 -87 1206 0
485 17 795 58 1065 16 105 12 130 -28 187 -9 13 -9 20 1 32 19 23 31 20 31 -8
0 -29 38 -43 57 -21 9 10 9 11 1 5 -20 -17 -29 -11 -16 10 15 24 4 37 -17 20
-13 -11 -15 -9 -15 14 0 25 -3 27 -38 25 -21 -2 -45 -5 -53 -7z"/>
<path d="M2320 3693 c29 -5 90 -34 90 -44 0 -13 -76 -74 -89 -71 -12 3 -12 1
-3 -11 6 -7 9 -17 5 -20 -3 -4 -2 -7 4 -7 5 0 10 -6 11 -12 1 -7 10 -51 20
-98 64 -282 82 -1222 36 -1850 -3 -41 -7 -88 -11 -104 -4 -21 -2 -27 8 -24 24
8 28 119 33 748 4 597 -6 958 -32 1130 -6 36 -13 101 -17 145 -3 44 -8 88 -11
97 -3 11 3 19 18 24 13 4 37 17 53 29 17 12 40 21 53 20 13 -1 25 1 27 5 3 4
-6 6 -18 6 -12 -1 -28 3 -36 8 -8 6 -15 10 -15 8 -1 -2 -8 -1 -16 1 -8 3 -30
10 -49 16 -19 6 -46 10 -60 10 l-26 -2 25 -4z"/>
<path d="M2240 3666 c0 -17 26 -39 51 -43 24 -4 25 19 1 40 -22 21 -52 22 -52
3z"/>
<path d="M2240 3610 c0 -5 5 -10 10 -10 6 0 10 5 10 10 0 6 -4 10 -10 10 -5 0
-10 -4 -10 -10z"/>
<path d="M2254 3574 c3 -9 6 -20 6 -25 0 -5 10 -14 23 -19 16 -6 17 -9 5 -9
-16 -1 -16 -5 -1 -53 8 -29 24 -71 34 -92 10 -22 15 -42 10 -45 -6 -4 -5 -24
1 -51 5 -25 10 -54 10 -65 0 -11 7 -78 14 -150 45 -442 43 -1092 -7 -1520 -6
-55 -10 -109 -7 -120 8 -41 38 269 49 505 12 264 7 774 -11 1030 -19 280 -30
395 -39 398 -5 2 -7 11 -4 21 6 25 -35 193 -50 203 -21 13 -40 9 -33 -8z"/>
<path d="M2733 3538 c0 -35 1 -38 7 -18 11 34 12 60 2 60 -4 0 -8 -19 -9 -42z"/>
<path d="M2392 1385 c0 -16 2 -22 5 -12 2 9 2 23 0 30 -3 6 -5 -1 -5 -18z"/>
<path d="M2371 1230 c-8 -24 -7 -30 5 -30 9 0 14 10 14 30 0 17 -2 30 -4 30
-2 0 -9 -13 -15 -30z"/>
<path d="M2742 1220 c0 -14 2 -19 5 -12 2 6 2 18 0 25 -3 6 -5 1 -5 -13z"/>
<path d="M2367 1180 c-3 -8 -7 -39 -10 -68 -5 -61 9 -50 19 15 7 45 1 80 -9
53z"/>
<path d="M2751 1170 c0 -8 4 -22 9 -30 12 -18 12 -2 0 25 -6 13 -9 15 -9 5z"/>
<path d="M2286 1135 c-9 -9 -16 -24 -16 -33 0 -9 -3 -35 -7 -56 -4 -28 -3 -37
5 -32 7 4 12 26 13 49 1 34 2 37 8 17 6 -22 8 -19 14 20 7 52 5 56 -17 35z"/>
<path d="M2343 1000 c-1 -43 1 -49 7 -27 5 15 5 39 1 55 -7 21 -8 15 -8 -28z"/>
<path d="M2630 999 c0 -5 5 -7 10 -4 6 3 10 8 10 11 0 2 -4 4 -10 4 -5 0 -10
-5 -10 -11z"/>
<path d="M2245 988 c-12 -33 -9 -62 6 -66 13 -2 18 6 21 37 2 29 0 41 -10 41
-7 0 -15 -6 -17 -12z"/>
<path d="M2207 840 c-17 -73 -15 -102 7 -80 8 9 8 14 -2 17 -6 3 -10 9 -7 13
3 5 12 7 20 4 15 -6 22 14 27 76 2 25 -1 35 -12 38 -12 2 -20 -15 -33 -68z"/>
<path d="M2324 816 c11 -9 40 -16 65 -17 25 0 55 -3 66 -5 11 -2 65 -1 120 3
l100 8 -165 5 c-91 3 -174 9 -185 14 -20 8 -20 7 -1 -8z"/>
<path d="M2750 783 c-14 -3 -29 -9 -35 -15 -11 -11 40 -1 65 13 16 9 11 9 -30
2z"/>
<path d="M2828 783 c6 -2 18 -2 25 0 6 3 1 5 -13 5 -14 0 -19 -2 -12 -5z"/>
<path d="M2808 753 c7 -3 16 -2 19 1 4 3 -2 6 -13 5 -11 0 -14 -3 -6 -6z"/>
<path d="M2180 735 c7 -8 17 -15 22 -15 6 0 5 7 -2 15 -7 8 -17 15 -22 15 -6
0 -5 -7 2 -15z"/>
<path d="M2538 743 c7 -3 16 -2 19 1 4 3 -2 6 -13 5 -11 0 -14 -3 -6 -6z"/>
<path d="M2815 735 c-22 -8 -34 -14 -27 -14 20 -1 14 -19 -8 -24 -18 -4 -18
-5 2 -5 43 0 50 -2 46 -14 -3 -7 -15 -16 -29 -20 -15 -4 -5 -5 25 -3 27 2 56
11 65 19 10 11 11 16 3 16 -7 0 -12 9 -12 20 0 21 -15 27 -25 10 -3 -5 -11
-10 -17 -10 -5 0 0 9 13 20 27 22 20 23 -36 5z m51 -60 c-11 -8 -24 -15 -30
-15 -5 0 -1 7 10 15 10 8 24 14 29 14 6 0 1 -6 -9 -14z"/>
<path d="M2160 716 c0 -19 19 -31 31 -19 5 5 0 14 -11 21 -17 10 -20 10 -20
-2z"/>
<path d="M2140 682 c0 -12 19 -26 26 -19 2 2 -2 10 -11 17 -9 8 -15 8 -15 2z"/>
<path d="M2718 683 c6 -2 18 -2 25 0 6 3 1 5 -13 5 -14 0 -19 -2 -12 -5z"/>
<path d="M2453 673 c26 -2 68 -2 95 0 26 2 4 3 -48 3 -52 0 -74 -1 -47 -3z"/>
<path d="M2608 673 c7 -3 16 -2 19 1 4 3 -2 6 -13 5 -11 0 -14 -3 -6 -6z"/>
<path d="M2895 660 c-3 -5 -1 -10 4 -10 6 0 11 5 11 10 0 6 -2 10 -4 10 -3 0
-8 -4 -11 -10z"/>
<path d="M2905 630 c-3 -5 -2 -10 4 -10 5 0 13 5 16 10 3 6 2 10 -4 10 -5 0
-13 -4 -16 -10z"/>
<path d="M2468 623 c34 -2 88 -2 120 0 31 2 3 3 -63 3 -66 0 -92 -1 -57 -3z"/>
<path d="M2925 610 c-18 -8 -17 -9 8 -9 16 -1 26 3 22 9 -3 6 -7 10 -8 9 -1 0
-11 -4 -22 -9z"/>
<path d="M2123 513 c9 -2 23 -2 30 0 6 3 -1 5 -18 5 -16 0 -22 -2 -12 -5z"/>
<path d="M2078 503 c7 -3 16 -2 19 1 4 3 -2 6 -13 5 -11 0 -14 -3 -6 -6z"/>
<path d="M2139 487 c-70 -47 -43 -92 69 -116 64 -13 72 -14 72 -2 0 4 -27 11
-59 15 -103 12 -130 62 -58 107 18 10 27 19 21 19 -6 0 -26 -10 -45 -23z"/>
<path d="M1993 490 c-13 -5 -23 -14 -23 -20 0 -6 -6 -8 -12 -4 -7 4 -10 4 -6
-1 4 -4 0 -14 -10 -21 -9 -7 -12 -14 -6 -14 6 0 23 9 37 20 14 11 41 27 59 35
30 13 31 14 8 14 -14 0 -35 -4 -47 -9z"/>
<path d="M2045 454 c-14 -15 -25 -30 -25 -35 0 -21 14 -39 31 -39 18 0 18 2 4
23 -14 22 -14 26 6 50 27 35 15 35 -16 1z"/>
<path d="M2229 462 c-1 -4 -1 -10 0 -14 0 -5 -6 -8 -14 -8 -8 0 -15 -7 -15
-15 0 -20 23 -19 67 5 23 12 31 21 22 24 -34 10 -59 14 -60 8z"/>
<path d="M2960 461 c0 -6 8 -7 17 -4 14 5 12 0 -6 -26 -13 -18 -33 -36 -45
-41 -22 -9 -19 -11 36 -13 30 -2 66 48 52 71 -12 19 -54 29 -54 13z"/>
<path d="M2470 440 c0 -5 5 -10 10 -10 6 0 10 5 10 10 0 6 -4 10 -10 10 -5 0
-10 -4 -10 -10z"/>
<path d="M2710 440 c0 -15 21 -23 32 -12 6 6 2 11 -11 15 -12 3 -21 1 -21 -3z"/>
<path d="M1976 423 c-6 -14 -5 -15 5 -6 7 7 10 15 7 18 -3 3 -9 -2 -12 -12z"/>
<path d="M2061 429 c-1 -9 9 -24 22 -35 22 -19 22 -19 6 1 -9 11 -19 27 -22
35 -5 13 -6 13 -6 -1z"/>
<path d="M2764 425 c3 -9 6 -19 6 -21 0 -2 9 -4 20 -4 28 0 25 15 -6 29 -23
10 -26 10 -20 -4z"/>
<path d="M2788 383 c6 -2 18 -2 25 0 6 3 1 5 -13 5 -14 0 -19 -2 -12 -5z"/>
<path d="M2735 370 c3 -5 12 -7 20 -3 21 7 19 13 -6 13 -11 0 -18 -4 -14 -10z"/>
<path d="M3660 293 c-87 -4 -396 -42 -440 -53 -19 -6 -48 -10 -65 -10 -16 0
-35 -4 -42 -8 -12 -8 218 -6 258 2 13 3 58 7 99 10 72 4 70 3 -60 -24 -147
-32 -185 -36 -160 -20 8 5 11 10 5 10 -13 0 -43 -20 -30 -20 6 0 3 -5 -5 -10
-12 -8 -10 -10 10 -10 14 0 41 4 60 9 19 4 42 5 50 2 8 -3 -19 -11 -60 -18
l-75 -12 80 5 c125 8 373 47 449 71 34 11 44 18 35 24 -10 6 -11 9 -1 9 6 0
12 5 12 10 0 7 -6 7 -20 0 -11 -6 -20 -9 -20 -6 0 3 -14 1 -30 -4 -19 -5 -28
-5 -25 1 4 5 14 9 24 9 10 0 26 9 36 20 18 19 17 20 -1 18 -10 -1 -48 -3 -84
-5z m-90 -27 c0 -2 -11 -6 -25 -8 -14 -3 -25 -1 -25 3 0 5 11 9 25 9 14 0 25
-2 25 -4z m85 -16 c-11 -5 -36 -8 -55 -8 l-35 0 30 8 c17 4 41 8 55 8 23 1 23
0 5 -8z m-247 -7 c-10 -2 -28 -2 -40 0 -13 2 -5 4 17 4 22 1 32 -1 23 -4z"/>
<path d="M1190 276 c0 -5 67 -26 135 -42 26 -6 28 -5 17 8 -7 8 -37 18 -66 22
-30 3 -61 9 -70 12 -9 3 -16 4 -16 0z"/>
<path d="M2700 210 c0 -6 33 -10 80 -10 47 0 80 4 80 10 0 6 -33 10 -80 10
-47 0 -80 -4 -80 -10z"/>
<path d="M1770 200 c0 -12 73 -20 244 -26 102 -4 161 -3 165 4 3 5 40 14 81
19 61 8 67 11 30 11 -25 1 -63 -3 -85 -9 -46 -12 -344 -12 -398 1 -21 4 -37 4
-37 0z"/>
<path d="M1848 203 c6 -2 18 -2 25 0 6 3 1 5 -13 5 -14 0 -19 -2 -12 -5z"/>
<path d="M3110 190 c-11 -8 -7 -9 15 -4 37 8 45 14 19 14 -10 0 -26 -5 -34
-10z"/>
<path d="M2958 183 c7 -3 16 -2 19 1 4 3 -2 6 -13 5 -11 0 -14 -3 -6 -6z"/>
<path d="M2996 178 c7 -11 35 -10 53 1 10 6 3 9 -22 8 -20 0 -34 -5 -31 -9z"/>
<path d="M2853 173 c9 -2 23 -2 30 0 6 3 -1 5 -18 5 -16 0 -22 -2 -12 -5z"/>
<path d="M1460 154 c25 -8 59 -17 75 -19 128 -18 208 -23 260 -19 62 6 88 14
42 14 -14 0 -58 7 -98 15 -40 9 -129 17 -198 20 -122 4 -125 3 -81 -11z"/>
<path d="M2745 160 c-17 -7 -16 -9 10 -9 17 0 39 4 50 9 17 7 16 9 -10 9 -16
0 -39 -4 -50 -9z"/>
<path d="M3158 133 c6 -2 18 -2 25 0 6 3 1 5 -13 5 -14 0 -19 -2 -12 -5z"/>
<path d="M1868 103 c12 -2 30 -2 40 0 9 3 -1 5 -23 4 -22 0 -30 -2 -17 -4z"/>
<path d="M2788 103 c18 -2 45 -2 60 0 15 2 0 4 -33 4 -33 0 -45 -2 -27 -4z"/>
</g>
</svg>
