<?xml version="1.0" encoding="UTF-8"?>
<svg id="Calque_1" data-name="Calque 1" xmlns="http://www.w3.org/2000/svg" viewBox="0 0 283.46 67.54">
  <defs>
    <style>
      .cls-1 {
        fill: #1e22aa;
      }
    </style>
  </defs>
  <g>
    <path class="cls-1" d="m31.89,33.92c-11.39,0-18.61-18.05-25.53-24.1v24.1H0V.86h2.59c9.56,0,17.95,19.02,25.48,25.12V.86h6.36v33.05h-2.54Z"/>
    <path class="cls-1" d="m65.55,34.78c-10.73,0-17.39-7.42-17.39-17.39S54.82,0,65.55,0s17.39,7.27,17.39,17.39-6.61,17.39-17.39,17.39m0-28.78c-6.97,0-10.63,4.78-10.63,11.39s3.66,11.29,10.63,11.29,10.68-4.68,10.68-11.29-3.66-11.39-10.68-11.39"/>
    <polygon class="cls-1" points="120.12 .86 127.29 .86 111.17 33.92 108.12 33.92 92.1 .86 99.17 .86 109.64 24 120.12 .86"/>
    <path class="cls-1" d="m153.84,34.78c-10.73,0-17.39-7.42-17.39-17.39S143.11,0,153.84,0s17.39,7.27,17.39,17.39-6.61,17.39-17.39,17.39m0-28.78c-6.97,0-10.63,4.78-10.63,11.39s3.66,11.29,10.63,11.29,10.68-4.68,10.68-11.29-3.66-11.39-10.68-11.39"/>
    <polygon class="cls-1" points="179.87 .86 210.08 .86 210.08 6.61 198.18 6.61 198.18 33.92 191.77 33.92 191.77 6.61 179.87 6.61 179.87 .86"/>
    <path class="cls-1" d="m244.81,6.87h-17.65v7.22h16.32v6h-16.32v2.75c0,4.48,2.44,5.65,7.68,5.65,4.68,0,7.22-.31,9.97-.76v5.9c-2.75.51-5.14.96-10.22.96-9.15,0-13.83-3.15-13.83-11.9V.86h24.05v6Z"/>
    <path class="cls-1" d="m266.48,22.32c0,4.53,1.63,6,6.87,6,4.53,0,7.37-.36,10.12-.71v5.85c-2.75.51-5.49.97-10.58.97-9.1,0-12.81-3.51-12.81-12.21V.86h6.41v21.46Z"/>
  </g>
  <g>
    <path class="cls-1" d="m43.8,64.76l-3.2-4.5c-.36.04-.73.06-1.12.06h-3.76v4.44h-1.48v-14h5.24c1.79,0,3.19.43,4.2,1.28,1.01.85,1.52,2.03,1.52,3.52,0,1.09-.28,2.02-.83,2.77-.55.75-1.34,1.3-2.37,1.63l3.42,4.8h-1.62Zm-1.18-6.62c.73-.61,1.1-1.47,1.1-2.58s-.37-2-1.1-2.61c-.73-.61-1.79-.91-3.18-.91h-3.72v7.02h3.72c1.39,0,2.45-.31,3.18-.92Z"/>
    <path class="cls-1" d="m61.58,63.48v1.28h-9.9v-14h9.6v1.28h-8.12v4.98h7.24v1.26h-7.24v5.2h8.42Z"/>
    <path class="cls-1" d="m68.04,50.76h1.48v14h-1.48v-14Z"/>
    <path class="cls-1" d="m91.6,50.76v14h-1.42v-11.2l-5.5,9.42h-.7l-5.5-9.36v11.14h-1.42v-14h1.22l6.08,10.38,6.02-10.38h1.22Z"/>
    <path class="cls-1" d="m100.01,64.38c-.95-.33-1.69-.77-2.21-1.32l.58-1.14c.51.51,1.18.92,2.02,1.23s1.71.47,2.6.47c1.25,0,2.19-.23,2.82-.69.63-.46.94-1.06.94-1.79,0-.56-.17-1.01-.51-1.34-.34-.33-.76-.59-1.25-.77-.49-.18-1.18-.38-2.06-.59-1.05-.27-1.89-.52-2.52-.77-.63-.25-1.16-.62-1.61-1.13-.45-.51-.67-1.19-.67-2.06,0-.71.19-1.35.56-1.93s.95-1.04,1.72-1.39c.77-.35,1.73-.52,2.88-.52.8,0,1.58.11,2.35.33.77.22,1.43.52,1.99.91l-.5,1.18c-.59-.39-1.21-.68-1.88-.87-.67-.19-1.32-.29-1.96-.29-1.23,0-2.15.24-2.77.71s-.93,1.08-.93,1.83c0,.56.17,1.01.51,1.35.34.34.77.6,1.28.78s1.2.38,2.07.59c1.03.25,1.86.5,2.49.75.63.25,1.17.62,1.61,1.12.44.5.66,1.18.66,2.03,0,.71-.19,1.35-.57,1.93s-.96,1.04-1.75,1.38c-.79.34-1.75.51-2.9.51-1.04,0-2.04-.17-2.99-.5Z"/>
    <path class="cls-1" d="m125.36,52.04h-4.92v-1.28h11.32v1.28h-4.92v12.72h-1.48v-12.72Z"/>
    <path class="cls-1" d="m137.1,50.76h1.48v14h-1.48v-14Z"/>
    <path class="cls-1" d="m157.82,50.76v14h-1.22l-9-11.36v11.36h-1.48v-14h1.22l9.02,11.36v-11.36h1.46Z"/>
    <path class="cls-1" d="m179.46,65.94c-.43.52-.93.92-1.51,1.19-.58.27-1.21.41-1.89.41-.83,0-1.61-.2-2.35-.61-.74-.41-1.57-1.09-2.49-2.05-1.35-.04-2.56-.37-3.64-1-1.08-.63-1.93-1.47-2.54-2.54-.61-1.07-.92-2.26-.92-3.58s.32-2.56.95-3.64c.63-1.08,1.51-1.93,2.64-2.55,1.13-.62,2.38-.93,3.77-.93s2.64.31,3.75.92c1.11.61,1.99,1.46,2.63,2.55.64,1.09.96,2.3.96,3.65,0,1.17-.24,2.25-.73,3.23s-1.17,1.8-2.04,2.45c-.87.65-1.88,1.09-3.01,1.3,1.03,1.08,2.04,1.62,3.04,1.62s1.93-.43,2.66-1.28l.72.86Zm-13.11-5.22c.51.88,1.22,1.57,2.12,2.08s1.9.76,3.01.76,2.11-.25,3-.76c.89-.51,1.59-1.2,2.1-2.08.51-.88.76-1.87.76-2.96s-.25-2.08-.76-2.96c-.51-.88-1.21-1.57-2.1-2.08-.89-.51-1.89-.76-3-.76s-2.11.25-3.01.76c-.9.51-1.61,1.2-2.12,2.08-.51.88-.77,1.87-.77,2.96s.26,2.08.77,2.96Z"/>
    <path class="cls-1" d="m186.52,63.32c-1.01-1.04-1.52-2.55-1.52-4.54v-8.02h1.48v7.96c0,1.63.37,2.84,1.1,3.64.73.8,1.79,1.2,3.18,1.2s2.47-.4,3.2-1.2c.73-.8,1.1-2.01,1.1-3.64v-7.96h1.44v8.02c0,1.99-.5,3.5-1.51,4.54s-2.42,1.56-4.23,1.56-3.23-.52-4.24-1.56Z"/>
    <path class="cls-1" d="m213.84,63.48v1.28h-9.9v-14h9.6v1.28h-8.12v4.98h7.24v1.26h-7.24v5.2h8.42Z"/>
    <path class="cls-1" d="m221.7,63.32c-1.01-1.04-1.52-2.55-1.52-4.54v-8.02h1.48v7.96c0,1.63.37,2.84,1.1,3.64.73.8,1.79,1.2,3.18,1.2s2.47-.4,3.2-1.2c.73-.8,1.1-2.01,1.1-3.64v-7.96h1.44v8.02c0,1.99-.5,3.5-1.51,4.54s-2.42,1.56-4.23,1.56-3.23-.52-4.24-1.56Z"/>
    <path class="cls-1" d="m247.7,64.76l-4.52-6.16-4.5,6.16h-1.7l5.32-7.2-4.98-6.8h1.7l4.22,5.72,4.2-5.72h1.6l-4.96,6.76,5.34,7.24h-1.72Z"/>
  </g>
</svg>